<mxfile host="app.diagrams.net" modified="2020-12-01T04:09:32.066Z" agent="5.0 (Windows)" etag="AGImBGKjtjfZozMgO-iX" version="13.10.4" type="github">
  <diagram id="kgpKYQtTHZ0yAKxKKP6v" name="Page-1">
    <mxGraphModel dx="2400" dy="845" grid="1" gridSize="3" guides="1" tooltips="1" connect="1" arrows="1" fold="1" page="1" pageScale="1" pageWidth="850" pageHeight="1100" background="#F1FAEE" math="0" shadow="0">
      <root>
        <mxCell id="0" />
        <mxCell id="1" parent="0" />
        <mxCell id="X2vZLEiec1v9-HC9pAJ2-279" value="interface：&lt;span style=&quot;font-size: 10px;&quot;&gt;&lt;font style=&quot;font-size: 10px;&quot; color=&quot;#cc0000&quot;&gt;BeanDefinitionReader&lt;/font&gt;&lt;/span&gt;&lt;br style=&quot;font-size: 10px;&quot;&gt;解析读取Bean定义对象&lt;br style=&quot;font-size: 10px;&quot;&gt;到BeanFactory中" style="shape=ext;rounded=1;html=1;whiteSpace=wrap;shadow=0;glass=0;sketch=0;strokeColor=#b46504;strokeWidth=3;fontSize=10;align=center;fillColor=#fad7ac;opacity=70;arcSize=9;verticalAlign=top;spacing=5;labelBorderColor=none;labelBackgroundColor=none;fontStyle=0;fontFamily=Comic Sans MS;" parent="1" vertex="1">
          <mxGeometry x="1057" y="238" width="250" height="336" as="geometry" />
        </mxCell>
        <mxCell id="3nuBFxr9cyL0pnOWT2aG-1" value="" style="shape=umlLifeline;perimeter=lifelinePerimeter;container=1;collapsible=0;recursiveResize=0;rounded=1;shadow=0;strokeWidth=1;fillColor=#A8DADC;strokeColor=#457B9D;fontColor=#1D3557;spacing=5;labelBorderColor=none;labelBackgroundColor=none;fontStyle=0;fontSize=10;fontFamily=Comic Sans MS;" parent="1" vertex="1">
          <mxGeometry x="33" y="70" width="150" height="300" as="geometry" />
        </mxCell>
        <mxCell id="3nuBFxr9cyL0pnOWT2aG-2" value="" style="points=[];perimeter=orthogonalPerimeter;rounded=1;shadow=0;strokeWidth=1;fillColor=#A8DADC;strokeColor=#457B9D;fontColor=#1D3557;spacing=5;labelBorderColor=none;labelBackgroundColor=none;fontStyle=0;fontSize=10;fontFamily=Comic Sans MS;" parent="3nuBFxr9cyL0pnOWT2aG-1" vertex="1">
          <mxGeometry x="70" y="74" width="10" height="190" as="geometry" />
        </mxCell>
        <mxCell id="3nuBFxr9cyL0pnOWT2aG-3" value="new" style="verticalAlign=bottom;startArrow=oval;endArrow=block;startSize=8;shadow=0;strokeWidth=1;labelBackgroundColor=none;strokeColor=#457B9D;fontColor=#1D3557;entryX=-0.1;entryY=0;entryDx=0;entryDy=0;entryPerimeter=0;spacing=5;labelBorderColor=none;fontStyle=0;fontSize=10;fontFamily=Comic Sans MS;" parent="3nuBFxr9cyL0pnOWT2aG-1" target="3nuBFxr9cyL0pnOWT2aG-2" edge="1">
          <mxGeometry relative="1" as="geometry">
            <mxPoint x="-54" y="74" as="sourcePoint" />
          </mxGeometry>
        </mxCell>
        <mxCell id="WuqNJLrXe6y0jd8liVRH-7" value="ClassPathXmlApplicationContext" style="html=1;align=center;verticalAlign=top;rounded=1;absoluteArcSize=1;arcSize=10;dashed=0;labelBackgroundColor=none;sketch=0;fontFamily=Comic Sans MS;fontSize=10;fontColor=#1D3557;strokeColor=none;fillColor=none;" vertex="1" parent="3nuBFxr9cyL0pnOWT2aG-1">
          <mxGeometry x="5" width="140" height="24" as="geometry" />
        </mxCell>
        <mxCell id="3nuBFxr9cyL0pnOWT2aG-8" value="setConfigLocations" style="verticalAlign=bottom;endArrow=block;shadow=0;strokeWidth=1;labelBackgroundColor=none;strokeColor=#457B9D;fontColor=#1D3557;entryX=-0.014;entryY=0.013;entryDx=0;entryDy=0;entryPerimeter=0;fontSize=10;spacing=5;labelBorderColor=none;fontStyle=0;fontFamily=Comic Sans MS;" parent="1" source="3nuBFxr9cyL0pnOWT2aG-2" target="X2vZLEiec1v9-HC9pAJ2-3" edge="1">
          <mxGeometry relative="1" as="geometry">
            <mxPoint x="275" y="160" as="sourcePoint" />
            <mxPoint x="160" y="160" as="targetPoint" />
          </mxGeometry>
        </mxCell>
        <mxCell id="X2vZLEiec1v9-HC9pAJ2-2" value="" style="shape=umlLifeline;perimeter=lifelinePerimeter;whiteSpace=wrap;html=1;container=1;collapsible=0;recursiveResize=0;outlineConnect=0;rounded=1;sketch=0;strokeColor=#457B9D;fillColor=#A8DADC;fontColor=#1D3557;labelBorderColor=none;spacing=5;labelBackgroundColor=none;fontStyle=0;fontSize=10;fontFamily=Comic Sans MS;" parent="1" vertex="1">
          <mxGeometry x="255" y="70" width="252" height="750" as="geometry" />
        </mxCell>
        <mxCell id="X2vZLEiec1v9-HC9pAJ2-6" value="" style="html=1;points=[];perimeter=orthogonalPerimeter;rounded=1;sketch=0;strokeColor=#457B9D;fillColor=#A8DADC;fontSize=10;fontColor=#1D3557;spacing=5;labelBorderColor=none;labelBackgroundColor=none;fontStyle=0;fontFamily=Comic Sans MS;" parent="X2vZLEiec1v9-HC9pAJ2-2" vertex="1">
          <mxGeometry x="60" y="130" width="10" height="620" as="geometry" />
        </mxCell>
        <mxCell id="X2vZLEiec1v9-HC9pAJ2-34" value="" style="html=1;points=[];perimeter=orthogonalPerimeter;rounded=1;sketch=0;strokeColor=#457B9D;fillColor=#A8DADC;fontSize=10;fontColor=#1D3557;spacing=5;labelBorderColor=none;labelBackgroundColor=none;fontStyle=0;fontFamily=Comic Sans MS;" parent="X2vZLEiec1v9-HC9pAJ2-2" vertex="1">
          <mxGeometry x="179" y="190.5" width="10" height="151" as="geometry" />
        </mxCell>
        <mxCell id="X2vZLEiec1v9-HC9pAJ2-8" value="obtainFreshBeanFactory()" style="html=1;verticalAlign=bottom;endArrow=block;labelBackgroundColor=none;strokeColor=#457B9D;fillColor=#A8DADC;fontSize=10;fontColor=#1D3557;entryX=0;entryY=-0.012;entryDx=0;entryDy=0;entryPerimeter=0;spacing=5;labelBorderColor=none;fontStyle=0;fontFamily=Comic Sans MS;" parent="X2vZLEiec1v9-HC9pAJ2-2" source="X2vZLEiec1v9-HC9pAJ2-6" target="X2vZLEiec1v9-HC9pAJ2-34" edge="1">
          <mxGeometry width="80" relative="1" as="geometry">
            <mxPoint x="-50" y="260" as="sourcePoint" />
            <mxPoint x="220" y="161" as="targetPoint" />
            <Array as="points">
              <mxPoint x="95" y="189" />
            </Array>
          </mxGeometry>
        </mxCell>
        <mxCell id="X2vZLEiec1v9-HC9pAJ2-40" value="BeanFactory:&lt;br style=&quot;font-size: 10px;&quot;&gt;DefaultListableBeanFactory" style="html=1;verticalAlign=bottom;endArrow=open;dashed=1;endSize=8;exitX=0.1;exitY=1.019;labelBackgroundColor=none;strokeColor=#457B9D;fillColor=#A8DADC;fontSize=10;fontColor=#1D3557;exitDx=0;exitDy=0;exitPerimeter=0;spacing=5;labelBorderColor=none;fontStyle=0;fontFamily=Comic Sans MS;" parent="X2vZLEiec1v9-HC9pAJ2-2" source="X2vZLEiec1v9-HC9pAJ2-34" target="X2vZLEiec1v9-HC9pAJ2-6" edge="1">
          <mxGeometry relative="1" as="geometry">
            <mxPoint x="350" y="186" as="targetPoint" />
          </mxGeometry>
        </mxCell>
        <mxCell id="X2vZLEiec1v9-HC9pAJ2-12" value="prepareBeanFactory()&lt;br style=&quot;font-size: 10px;&quot;&gt;" style="html=1;verticalAlign=middle;endArrow=block;labelBackgroundColor=none;strokeColor=#457B9D;fillColor=#A8DADC;fontSize=10;fontColor=#1D3557;align=left;edgeStyle=elbowEdgeStyle;entryX=1.035;entryY=0.449;entryDx=0;entryDy=0;entryPerimeter=0;exitX=1.04;exitY=0.391;exitDx=0;exitDy=0;exitPerimeter=0;spacing=5;labelBorderColor=none;fontStyle=0;fontFamily=Comic Sans MS;" parent="X2vZLEiec1v9-HC9pAJ2-2" source="X2vZLEiec1v9-HC9pAJ2-6" target="X2vZLEiec1v9-HC9pAJ2-6" edge="1">
          <mxGeometry x="-1" y="-46" width="80" relative="1" as="geometry">
            <mxPoint x="71" y="385" as="sourcePoint" />
            <mxPoint x="214" y="385" as="targetPoint" />
            <Array as="points">
              <mxPoint x="106" y="392" />
            </Array>
            <mxPoint x="-20" y="-24" as="offset" />
          </mxGeometry>
        </mxCell>
        <mxCell id="WuqNJLrXe6y0jd8liVRH-16" value="AbstractApplicationContext" style="html=1;align=center;verticalAlign=top;rounded=1;absoluteArcSize=1;arcSize=10;dashed=0;labelBackgroundColor=none;sketch=0;fontFamily=Comic Sans MS;fontSize=10;fontColor=#1D3557;strokeColor=none;fillColor=none;" vertex="1" parent="X2vZLEiec1v9-HC9pAJ2-2">
          <mxGeometry x="56" width="140" height="24" as="geometry" />
        </mxCell>
        <mxCell id="X2vZLEiec1v9-HC9pAJ2-5" value="" style="html=1;verticalAlign=bottom;endArrow=block;strokeColor=#457B9D;fillColor=#A8DADC;fontColor=#1D3557;exitX=0.019;exitY=0.988;exitDx=0;exitDy=0;exitPerimeter=0;spacing=5;labelBorderColor=none;labelBackgroundColor=none;fontStyle=0;fontSize=10;fontFamily=Comic Sans MS;" parent="1" source="X2vZLEiec1v9-HC9pAJ2-3" target="3nuBFxr9cyL0pnOWT2aG-2" edge="1">
          <mxGeometry width="80" relative="1" as="geometry">
            <mxPoint x="140" y="400" as="sourcePoint" />
            <mxPoint x="220" y="400" as="targetPoint" />
          </mxGeometry>
        </mxCell>
        <mxCell id="X2vZLEiec1v9-HC9pAJ2-3" value="" style="html=1;points=[];perimeter=orthogonalPerimeter;rounded=1;sketch=0;strokeColor=#457B9D;fillColor=#A8DADC;fontColor=#1D3557;spacing=5;labelBorderColor=none;labelBackgroundColor=none;fontStyle=0;fontSize=10;fontFamily=Comic Sans MS;" parent="1" vertex="1">
          <mxGeometry x="159" y="150" width="10" height="20" as="geometry" />
        </mxCell>
        <mxCell id="X2vZLEiec1v9-HC9pAJ2-7" value="refresh()" style="html=1;verticalAlign=bottom;endArrow=block;strokeColor=#457B9D;fillColor=#A8DADC;fontSize=10;fontColor=#1D3557;exitX=0.897;exitY=0.313;exitDx=0;exitDy=0;exitPerimeter=0;labelBackgroundColor=none;spacing=5;labelBorderColor=none;fontStyle=0;fontFamily=Comic Sans MS;" parent="1" source="3nuBFxr9cyL0pnOWT2aG-2" target="X2vZLEiec1v9-HC9pAJ2-6" edge="1">
          <mxGeometry width="80" relative="1" as="geometry">
            <mxPoint x="50" y="200" as="sourcePoint" />
            <mxPoint x="260" y="370" as="targetPoint" />
          </mxGeometry>
        </mxCell>
        <mxCell id="X2vZLEiec1v9-HC9pAJ2-9" value="prepareRefresh()" style="html=1;verticalAlign=bottom;endArrow=block;labelBackgroundColor=none;strokeColor=#457B9D;fillColor=#A8DADC;fontSize=10;fontColor=#1D3557;spacing=5;labelBorderColor=none;fontStyle=0;fontFamily=Comic Sans MS;" parent="1" source="X2vZLEiec1v9-HC9pAJ2-6" edge="1">
          <mxGeometry width="80" relative="1" as="geometry">
            <mxPoint x="242" y="219" as="sourcePoint" />
            <mxPoint x="360" y="219" as="targetPoint" />
          </mxGeometry>
        </mxCell>
        <mxCell id="X2vZLEiec1v9-HC9pAJ2-16" value="postProcessBeanFactory()&lt;br style=&quot;font-size: 10px;&quot;&gt;&lt;span style=&quot;font-size: 10px;&quot;&gt;该方法为模板方法，本身没有方法体，&lt;/span&gt;&lt;br style=&quot;font-size: 10px;&quot;&gt;&lt;div style=&quot;font-size: 10px;&quot;&gt;&lt;span style=&quot;font-size: 10px;&quot;&gt;允许此类的子类实现该方法做自定义的扩展&lt;/span&gt;&lt;/div&gt;" style="html=1;verticalAlign=middle;endArrow=ERzeroToMany;labelBackgroundColor=none;strokeColor=#457B9D;fillColor=#A8DADC;fontSize=10;fontColor=#1D3557;align=left;sketch=1;endFill=1;spacing=5;labelBorderColor=none;fontStyle=0;fontFamily=Comic Sans MS;" parent="1" source="X2vZLEiec1v9-HC9pAJ2-6" edge="1">
          <mxGeometry x="-1" y="45" width="80" relative="1" as="geometry">
            <mxPoint x="362" y="509" as="sourcePoint" />
            <mxPoint x="485" y="509" as="targetPoint" />
            <mxPoint x="-45" y="39" as="offset" />
          </mxGeometry>
        </mxCell>
        <mxCell id="X2vZLEiec1v9-HC9pAJ2-17" value="invokeBeanFactoryPostProcessors()" style="html=1;verticalAlign=bottom;endArrow=block;labelBackgroundColor=none;strokeColor=#457B9D;fillColor=#A8DADC;fontSize=10;fontColor=#1D3557;spacing=5;labelBorderColor=none;fontStyle=0;fontFamily=Comic Sans MS;" parent="1" source="X2vZLEiec1v9-HC9pAJ2-6" edge="1">
          <mxGeometry width="80" relative="1" as="geometry">
            <mxPoint x="244.81034482758628" y="390.0000000000001" as="sourcePoint" />
            <mxPoint x="490" y="550" as="targetPoint" />
          </mxGeometry>
        </mxCell>
        <mxCell id="X2vZLEiec1v9-HC9pAJ2-20" value="registerBeanPostProcessors()" style="html=1;verticalAlign=bottom;endArrow=block;labelBackgroundColor=none;strokeColor=#457B9D;fillColor=#A8DADC;fontSize=10;fontColor=#1D3557;spacing=5;labelBorderColor=none;fontStyle=0;fontFamily=Comic Sans MS;" parent="1" source="X2vZLEiec1v9-HC9pAJ2-6" edge="1">
          <mxGeometry width="80" relative="1" as="geometry">
            <mxPoint x="244.81034482758628" y="430.0000000000001" as="sourcePoint" />
            <mxPoint x="510" y="590" as="targetPoint" />
          </mxGeometry>
        </mxCell>
        <mxCell id="X2vZLEiec1v9-HC9pAJ2-21" value="initMessageSource()" style="html=1;verticalAlign=bottom;endArrow=block;labelBackgroundColor=none;strokeColor=#457B9D;fillColor=#A8DADC;fontSize=10;fontColor=#1D3557;spacing=5;labelBorderColor=none;fontStyle=0;fontFamily=Comic Sans MS;" parent="1" source="X2vZLEiec1v9-HC9pAJ2-6" edge="1">
          <mxGeometry width="80" relative="1" as="geometry">
            <mxPoint x="270.0003448275863" y="620.0000000000001" as="sourcePoint" />
            <mxPoint x="490" y="640" as="targetPoint" />
          </mxGeometry>
        </mxCell>
        <mxCell id="X2vZLEiec1v9-HC9pAJ2-28" value="initApplicationEventMulticaster()" style="html=1;verticalAlign=bottom;endArrow=block;labelBackgroundColor=none;strokeColor=#457B9D;fillColor=#A8DADC;fontSize=10;fontColor=#1D3557;spacing=5;labelBorderColor=none;fontStyle=0;fontFamily=Comic Sans MS;" parent="1" source="X2vZLEiec1v9-HC9pAJ2-6" edge="1">
          <mxGeometry width="80" relative="1" as="geometry">
            <mxPoint x="244.81034482758605" y="530" as="sourcePoint" />
            <mxPoint x="490" y="680" as="targetPoint" />
          </mxGeometry>
        </mxCell>
        <mxCell id="X2vZLEiec1v9-HC9pAJ2-29" value="onRefresh()" style="html=1;verticalAlign=bottom;endArrow=block;labelBackgroundColor=none;strokeColor=#457B9D;fillColor=#A8DADC;fontSize=10;fontColor=#1D3557;spacing=5;labelBorderColor=none;fontStyle=0;fontFamily=Comic Sans MS;" parent="1" source="X2vZLEiec1v9-HC9pAJ2-6" edge="1">
          <mxGeometry width="80" relative="1" as="geometry">
            <mxPoint x="244.81034482758605" y="570" as="sourcePoint" />
            <mxPoint x="490" y="710" as="targetPoint" />
          </mxGeometry>
        </mxCell>
        <mxCell id="X2vZLEiec1v9-HC9pAJ2-30" value="registerListeners()" style="html=1;verticalAlign=bottom;endArrow=block;labelBackgroundColor=none;strokeColor=#457B9D;fillColor=#A8DADC;fontSize=10;fontColor=#1D3557;spacing=5;labelBorderColor=none;fontStyle=0;fontFamily=Comic Sans MS;" parent="1" source="X2vZLEiec1v9-HC9pAJ2-6" edge="1">
          <mxGeometry width="80" relative="1" as="geometry">
            <mxPoint x="244.81034482758605" y="600" as="sourcePoint" />
            <mxPoint x="490" y="740" as="targetPoint" />
          </mxGeometry>
        </mxCell>
        <mxCell id="X2vZLEiec1v9-HC9pAJ2-31" value="finishBeanFactoryInitialization()" style="html=1;verticalAlign=bottom;endArrow=block;labelBackgroundColor=none;strokeColor=#457B9D;fillColor=#A8DADC;fontSize=10;fontColor=#1D3557;spacing=5;labelBorderColor=none;fontStyle=0;fontFamily=Comic Sans MS;" parent="1" source="X2vZLEiec1v9-HC9pAJ2-6" edge="1">
          <mxGeometry width="80" relative="1" as="geometry">
            <mxPoint x="244.81034482758605" y="660" as="sourcePoint" />
            <mxPoint x="490" y="760" as="targetPoint" />
          </mxGeometry>
        </mxCell>
        <mxCell id="X2vZLEiec1v9-HC9pAJ2-32" value="finishRefresh()" style="html=1;verticalAlign=bottom;endArrow=block;labelBackgroundColor=none;strokeColor=#457B9D;fillColor=#A8DADC;fontSize=10;fontColor=#1D3557;spacing=5;labelBorderColor=none;fontStyle=0;fontFamily=Comic Sans MS;" parent="1" source="X2vZLEiec1v9-HC9pAJ2-6" edge="1">
          <mxGeometry width="80" relative="1" as="geometry">
            <mxPoint x="244.81034482758605" y="690" as="sourcePoint" />
            <mxPoint x="480" y="790" as="targetPoint" />
          </mxGeometry>
        </mxCell>
        <mxCell id="X2vZLEiec1v9-HC9pAJ2-33" value="resetCommonCaches()" style="html=1;verticalAlign=bottom;endArrow=block;labelBackgroundColor=none;strokeColor=#457B9D;fillColor=#A8DADC;fontSize=10;fontColor=#1D3557;spacing=5;labelBorderColor=none;fontStyle=0;fontFamily=Comic Sans MS;" parent="1" source="X2vZLEiec1v9-HC9pAJ2-6" edge="1">
          <mxGeometry width="80" relative="1" as="geometry">
            <mxPoint x="244.81034482758605" y="720" as="sourcePoint" />
            <mxPoint x="490" y="820" as="targetPoint" />
          </mxGeometry>
        </mxCell>
        <mxCell id="X2vZLEiec1v9-HC9pAJ2-36" value="refreshBeanFactory()" style="html=1;verticalAlign=bottom;endArrow=block;labelBackgroundColor=none;strokeColor=#457B9D;fillColor=#A8DADC;fontSize=10;fontColor=#1D3557;entryX=0.066;entryY=0.011;entryDx=0;entryDy=0;entryPerimeter=0;spacing=5;labelBorderColor=none;fontStyle=0;fontFamily=Comic Sans MS;" parent="1" source="X2vZLEiec1v9-HC9pAJ2-34" target="X2vZLEiec1v9-HC9pAJ2-35" edge="1">
          <mxGeometry width="80" relative="1" as="geometry">
            <mxPoint x="513" y="260" as="sourcePoint" />
            <mxPoint x="675" y="199" as="targetPoint" />
            <Array as="points" />
          </mxGeometry>
        </mxCell>
        <mxCell id="X2vZLEiec1v9-HC9pAJ2-43" value="" style="html=1;verticalAlign=bottom;endArrow=open;dashed=1;endSize=8;labelBackgroundColor=none;strokeColor=#457B9D;fillColor=#A8DADC;fontSize=10;fontColor=#1D3557;exitX=0.1;exitY=1;exitDx=0;exitDy=0;exitPerimeter=0;spacing=5;labelBorderColor=none;fontStyle=0;fontFamily=Comic Sans MS;" parent="1" source="X2vZLEiec1v9-HC9pAJ2-35" target="X2vZLEiec1v9-HC9pAJ2-34" edge="1">
          <mxGeometry relative="1" as="geometry">
            <mxPoint x="620" y="480" as="sourcePoint" />
            <mxPoint x="540" y="480" as="targetPoint" />
            <Array as="points" />
          </mxGeometry>
        </mxCell>
        <mxCell id="X2vZLEiec1v9-HC9pAJ2-44" value="" style="shape=umlLifeline;perimeter=lifelinePerimeter;whiteSpace=wrap;html=1;container=1;collapsible=0;recursiveResize=0;outlineConnect=0;rounded=1;sketch=0;strokeColor=#457B9D;fillColor=#A8DADC;fontSize=10;fontColor=#1D3557;shadow=0;glass=0;spacing=5;labelBorderColor=none;labelBackgroundColor=none;fontStyle=0;fontFamily=Comic Sans MS;" parent="1" vertex="1">
          <mxGeometry x="571" y="70" width="230" height="488" as="geometry" />
        </mxCell>
        <mxCell id="X2vZLEiec1v9-HC9pAJ2-35" value="" style="html=1;points=[];perimeter=orthogonalPerimeter;rounded=1;sketch=0;strokeColor=#457B9D;fillColor=#A8DADC;fontSize=10;fontColor=#1D3557;spacing=5;labelBorderColor=none;labelBackgroundColor=none;fontStyle=0;fontFamily=Comic Sans MS;" parent="X2vZLEiec1v9-HC9pAJ2-44" vertex="1">
          <mxGeometry x="110" y="196" width="10" height="133.5" as="geometry" />
        </mxCell>
        <mxCell id="X2vZLEiec1v9-HC9pAJ2-46" value="createBeanFactory()" style="html=1;points=[];perimeter=orthogonalPerimeter;rounded=1;shadow=0;glass=0;sketch=0;strokeColor=#457B9D;fillColor=#A8DADC;fontSize=10;fontColor=#1D3557;spacing=5;labelBorderColor=none;labelBackgroundColor=none;fontStyle=0;fontFamily=Comic Sans MS;" parent="X2vZLEiec1v9-HC9pAJ2-44" vertex="1">
          <mxGeometry x="161" y="210" width="10" height="20" as="geometry" />
        </mxCell>
        <mxCell id="X2vZLEiec1v9-HC9pAJ2-47" value="" style="html=1;verticalAlign=bottom;endArrow=block;labelBackgroundColor=none;strokeColor=#457B9D;fillColor=#A8DADC;fontSize=10;fontColor=#1D3557;entryX=0.1;entryY=0.025;entryDx=0;entryDy=0;entryPerimeter=0;spacing=5;labelBorderColor=none;fontStyle=0;fontFamily=Comic Sans MS;" parent="X2vZLEiec1v9-HC9pAJ2-44" source="X2vZLEiec1v9-HC9pAJ2-35" target="X2vZLEiec1v9-HC9pAJ2-46" edge="1">
          <mxGeometry width="80" relative="1" as="geometry">
            <mxPoint x="70" y="300" as="sourcePoint" />
            <mxPoint x="150" y="300" as="targetPoint" />
          </mxGeometry>
        </mxCell>
        <mxCell id="X2vZLEiec1v9-HC9pAJ2-48" value="" style="html=1;verticalAlign=bottom;endArrow=open;dashed=1;endSize=8;labelBackgroundColor=none;strokeColor=#457B9D;fillColor=#A8DADC;fontSize=10;fontColor=#1D3557;exitX=0.143;exitY=1.024;exitDx=0;exitDy=0;exitPerimeter=0;spacing=5;labelBorderColor=none;fontStyle=0;fontFamily=Comic Sans MS;" parent="X2vZLEiec1v9-HC9pAJ2-44" source="X2vZLEiec1v9-HC9pAJ2-46" target="X2vZLEiec1v9-HC9pAJ2-35" edge="1">
          <mxGeometry relative="1" as="geometry">
            <mxPoint x="51" y="330" as="sourcePoint" />
            <mxPoint x="-70" y="275" as="targetPoint" />
          </mxGeometry>
        </mxCell>
        <mxCell id="X2vZLEiec1v9-HC9pAJ2-49" value="customizeBeanFactory()" style="html=1;points=[];perimeter=orthogonalPerimeter;rounded=1;shadow=0;glass=0;sketch=0;strokeColor=#457B9D;fillColor=#A8DADC;fontSize=10;fontColor=#1D3557;spacing=5;labelBorderColor=none;labelBackgroundColor=none;fontStyle=0;fontFamily=Comic Sans MS;" parent="X2vZLEiec1v9-HC9pAJ2-44" vertex="1">
          <mxGeometry x="161" y="250" width="10" height="20" as="geometry" />
        </mxCell>
        <mxCell id="X2vZLEiec1v9-HC9pAJ2-51" value="" style="html=1;verticalAlign=bottom;endArrow=open;dashed=1;endSize=8;labelBackgroundColor=none;strokeColor=#457B9D;fillColor=#A8DADC;fontSize=10;fontColor=#1D3557;exitX=0.114;exitY=0.993;exitDx=0;exitDy=0;exitPerimeter=0;spacing=5;labelBorderColor=none;fontStyle=0;fontFamily=Comic Sans MS;" parent="X2vZLEiec1v9-HC9pAJ2-44" source="X2vZLEiec1v9-HC9pAJ2-49" target="X2vZLEiec1v9-HC9pAJ2-35" edge="1">
          <mxGeometry relative="1" as="geometry">
            <mxPoint x="191.43000000000006" y="280.4799999999999" as="sourcePoint" />
            <mxPoint x="60" y="280.4799999999999" as="targetPoint" />
          </mxGeometry>
        </mxCell>
        <mxCell id="X2vZLEiec1v9-HC9pAJ2-50" value="" style="html=1;verticalAlign=bottom;endArrow=block;labelBackgroundColor=none;strokeColor=#457B9D;fillColor=#A8DADC;fontSize=10;fontColor=#1D3557;entryX=0;entryY=0.05;entryDx=0;entryDy=0;entryPerimeter=0;spacing=5;labelBorderColor=none;fontStyle=0;fontFamily=Comic Sans MS;" parent="X2vZLEiec1v9-HC9pAJ2-44" source="X2vZLEiec1v9-HC9pAJ2-35" target="X2vZLEiec1v9-HC9pAJ2-49" edge="1">
          <mxGeometry width="80" relative="1" as="geometry">
            <mxPoint x="60" y="260.5" as="sourcePoint" />
            <mxPoint x="191" y="260.5" as="targetPoint" />
            <mxPoint as="offset" />
          </mxGeometry>
        </mxCell>
        <mxCell id="WuqNJLrXe6y0jd8liVRH-17" value="AbstractRefreshableApplicationContext" style="html=1;align=center;verticalAlign=top;rounded=1;absoluteArcSize=1;arcSize=10;dashed=0;labelBackgroundColor=none;sketch=0;fontFamily=Comic Sans MS;fontSize=10;fontColor=#1D3557;strokeColor=none;fillColor=none;" vertex="1" parent="X2vZLEiec1v9-HC9pAJ2-44">
          <mxGeometry x="45" width="140" height="24" as="geometry" />
        </mxCell>
        <mxCell id="X2vZLEiec1v9-HC9pAJ2-54" value="loadBeanDefinitions()" style="html=1;verticalAlign=bottom;endArrow=block;entryX=-0.035;entryY=0.007;labelBackgroundColor=none;strokeColor=#457B9D;fillColor=#A8DADC;fontSize=10;fontStyle=0;fontColor=#1D3557;entryDx=0;entryDy=0;entryPerimeter=0;spacing=5;labelBorderColor=none;fontFamily=Comic Sans MS;" parent="1" source="X2vZLEiec1v9-HC9pAJ2-35" target="X2vZLEiec1v9-HC9pAJ2-62" edge="1">
          <mxGeometry relative="1" as="geometry">
            <mxPoint x="680" y="420" as="sourcePoint" />
          </mxGeometry>
        </mxCell>
        <mxCell id="X2vZLEiec1v9-HC9pAJ2-55" value="" style="html=1;verticalAlign=bottom;endArrow=open;dashed=1;endSize=8;exitX=-0.141;exitY=0.979;labelBackgroundColor=none;strokeColor=#457B9D;fillColor=#A8DADC;fontSize=10;fontColor=#1D3557;exitDx=0;exitDy=0;exitPerimeter=0;spacing=5;labelBorderColor=none;fontStyle=0;fontFamily=Comic Sans MS;" parent="1" source="X2vZLEiec1v9-HC9pAJ2-62" target="X2vZLEiec1v9-HC9pAJ2-35" edge="1">
          <mxGeometry relative="1" as="geometry">
            <mxPoint x="680" y="496" as="targetPoint" />
            <Array as="points">
              <mxPoint x="721" y="392" />
            </Array>
          </mxGeometry>
        </mxCell>
        <mxCell id="X2vZLEiec1v9-HC9pAJ2-61" value="" style="shape=umlLifeline;perimeter=lifelinePerimeter;whiteSpace=wrap;html=1;container=1;collapsible=0;recursiveResize=0;outlineConnect=0;rounded=1;sketch=0;strokeColor=#457B9D;fillColor=#A8DADC;fontSize=10;fontColor=#1D3557;shadow=0;glass=0;spacing=5;labelBorderColor=none;labelBackgroundColor=none;fontStyle=0;fontFamily=Comic Sans MS;" parent="1" vertex="1">
          <mxGeometry x="840" y="70" width="170" height="455" as="geometry" />
        </mxCell>
        <mxCell id="X2vZLEiec1v9-HC9pAJ2-62" value="" style="html=1;points=[];perimeter=orthogonalPerimeter;rounded=1;sketch=0;strokeColor=#457B9D;fillColor=#A8DADC;fontSize=10;fontColor=#1D3557;spacing=5;labelBorderColor=none;labelBackgroundColor=none;fontStyle=0;fontFamily=Comic Sans MS;" parent="X2vZLEiec1v9-HC9pAJ2-61" vertex="1">
          <mxGeometry x="80" y="287" width="10" height="125" as="geometry" />
        </mxCell>
        <mxCell id="X2vZLEiec1v9-HC9pAJ2-77" value="new beanDefinitionReader" style="html=1;verticalAlign=middle;endArrow=block;labelBackgroundColor=none;strokeColor=#457B9D;fillColor=#A8DADC;fontSize=10;fontColor=#1D3557;edgeStyle=orthogonalEdgeStyle;exitX=1.067;exitY=0.333;exitDx=0;exitDy=0;exitPerimeter=0;entryX=1.033;entryY=0.541;entryDx=0;entryDy=0;entryPerimeter=0;curved=1;spacing=5;labelBorderColor=none;fontStyle=0;fontFamily=Comic Sans MS;" parent="X2vZLEiec1v9-HC9pAJ2-61" source="X2vZLEiec1v9-HC9pAJ2-62" target="X2vZLEiec1v9-HC9pAJ2-62" edge="1">
          <mxGeometry x="-0.88" y="-10" width="80" relative="1" as="geometry">
            <mxPoint x="60" y="340" as="sourcePoint" />
            <mxPoint x="140" y="340" as="targetPoint" />
            <Array as="points">
              <mxPoint x="115" y="339" />
            </Array>
            <mxPoint as="offset" />
          </mxGeometry>
        </mxCell>
        <mxCell id="X2vZLEiec1v9-HC9pAJ2-78" value="initBeanDefinitionReader()" style="html=1;verticalAlign=middle;endArrow=block;labelBackgroundColor=none;strokeColor=#457B9D;fillColor=#A8DADC;fontSize=10;fontColor=#1D3557;exitX=1.033;exitY=0.059;exitDx=0;exitDy=0;exitPerimeter=0;edgeStyle=orthogonalEdgeStyle;entryX=1.037;entryY=0.217;entryDx=0;entryDy=0;entryPerimeter=0;curved=1;spacing=5;labelBorderColor=none;fontStyle=0;fontFamily=Comic Sans MS;" parent="X2vZLEiec1v9-HC9pAJ2-61" source="X2vZLEiec1v9-HC9pAJ2-62" target="X2vZLEiec1v9-HC9pAJ2-62" edge="1">
          <mxGeometry x="-0.6132" y="-6" width="80" relative="1" as="geometry">
            <mxPoint x="51.82999999999993" y="321.4" as="sourcePoint" />
            <mxPoint x="90" y="313" as="targetPoint" />
            <Array as="points">
              <mxPoint x="114" y="302" />
            </Array>
            <mxPoint as="offset" />
          </mxGeometry>
        </mxCell>
        <mxCell id="WuqNJLrXe6y0jd8liVRH-15" value="AbstractXmlApplicationContext" style="html=1;align=center;verticalAlign=top;rounded=1;absoluteArcSize=1;arcSize=10;dashed=0;labelBackgroundColor=none;sketch=0;fontFamily=Comic Sans MS;fontSize=10;fontColor=#1D3557;strokeColor=none;fillColor=none;" vertex="1" parent="X2vZLEiec1v9-HC9pAJ2-61">
          <mxGeometry x="12" width="140" height="24" as="geometry" />
        </mxCell>
        <mxCell id="X2vZLEiec1v9-HC9pAJ2-82" value="" style="html=1;verticalAlign=bottom;endArrow=open;dashed=1;endSize=8;labelBackgroundColor=none;strokeColor=#457B9D;fillColor=#A8DADC;fontSize=10;fontColor=#1D3557;spacing=5;labelBorderColor=none;fontStyle=0;fontFamily=Comic Sans MS;" parent="1" target="X2vZLEiec1v9-HC9pAJ2-80" edge="1">
          <mxGeometry relative="1" as="geometry">
            <mxPoint x="952" y="378" as="sourcePoint" />
            <mxPoint x="980" y="360" as="targetPoint" />
            <Array as="points">
              <mxPoint x="987" y="385" />
            </Array>
          </mxGeometry>
        </mxCell>
        <mxCell id="X2vZLEiec1v9-HC9pAJ2-80" value="" style="shape=umlLifeline;perimeter=lifelinePerimeter;whiteSpace=wrap;html=1;container=1;collapsible=0;recursiveResize=0;outlineConnect=0;rounded=1;shadow=0;glass=0;sketch=0;strokeColor=#457B9D;fillColor=#A8DADC;fontSize=10;fontColor=#1D3557;align=left;size=50;spacing=5;labelBorderColor=none;labelBackgroundColor=none;fontStyle=0;fontFamily=Comic Sans MS;" parent="1" vertex="1">
          <mxGeometry x="1070" y="323" width="73" height="188" as="geometry" />
        </mxCell>
        <mxCell id="X2vZLEiec1v9-HC9pAJ2-259" value="" style="html=1;points=[];perimeter=orthogonalPerimeter;rounded=1;shadow=0;glass=0;sketch=0;strokeColor=#457B9D;fillColor=#A8DADC;fontSize=10;fontColor=#1D3557;align=left;spacing=5;labelBorderColor=none;labelBackgroundColor=none;fontStyle=0;fontFamily=Comic Sans MS;" parent="X2vZLEiec1v9-HC9pAJ2-80" vertex="1">
          <mxGeometry x="31.5" y="115" width="10" height="34" as="geometry" />
        </mxCell>
        <mxCell id="X2vZLEiec1v9-HC9pAJ2-269" value="" style="shape=mxgraph.bpmn.loop;html=1;outlineConnect=0;rounded=1;shadow=0;glass=0;sketch=0;strokeColor=#457B9D;fillColor=#A8DADC;fontSize=10;fontColor=#1D3557;align=left;strokeWidth=1;gradientDirection=east;spacing=5;labelBorderColor=none;labelBackgroundColor=none;fontStyle=0;fontFamily=Comic Sans MS;" parent="X2vZLEiec1v9-HC9pAJ2-80" vertex="1">
          <mxGeometry x="34" y="125" width="14" height="14" as="geometry" />
        </mxCell>
        <mxCell id="WuqNJLrXe6y0jd8liVRH-18" value="&lt;font style=&quot;font-size: 10px&quot;&gt;XmlBean&lt;br style=&quot;font-size: 10px&quot;&gt;Definition&lt;br style=&quot;font-size: 10px&quot;&gt;Reader&lt;/font&gt;" style="html=1;align=center;verticalAlign=top;rounded=1;absoluteArcSize=1;arcSize=10;dashed=0;labelBackgroundColor=none;sketch=0;fontFamily=Comic Sans MS;fontSize=10;fontColor=#1D3557;strokeColor=none;fillColor=none;" vertex="1" parent="X2vZLEiec1v9-HC9pAJ2-80">
          <mxGeometry x="4.25" width="64.5" height="24" as="geometry" />
        </mxCell>
        <mxCell id="X2vZLEiec1v9-HC9pAJ2-260" value="loadBeanDefinitions" style="html=1;verticalAlign=bottom;endArrow=block;entryX=0;entryY=0;labelBackgroundColor=none;strokeColor=#457B9D;fillColor=#A8DADC;fontSize=10;fontColor=#1D3557;spacing=5;labelBorderColor=none;fontStyle=0;fontFamily=Comic Sans MS;" parent="1" source="X2vZLEiec1v9-HC9pAJ2-62" target="X2vZLEiec1v9-HC9pAJ2-259" edge="1">
          <mxGeometry x="0.0857" relative="1" as="geometry">
            <mxPoint x="970" y="510" as="sourcePoint" />
            <mxPoint as="offset" />
          </mxGeometry>
        </mxCell>
        <mxCell id="X2vZLEiec1v9-HC9pAJ2-261" value="" style="html=1;verticalAlign=bottom;endArrow=open;dashed=1;endSize=8;exitX=0;exitY=0.95;labelBackgroundColor=none;strokeColor=#457B9D;fillColor=#A8DADC;fontSize=10;fontColor=#1D3557;spacing=5;labelBorderColor=none;fontStyle=0;fontFamily=Comic Sans MS;" parent="1" source="X2vZLEiec1v9-HC9pAJ2-259" target="X2vZLEiec1v9-HC9pAJ2-62" edge="1">
          <mxGeometry relative="1" as="geometry">
            <mxPoint x="970" y="586" as="targetPoint" />
            <Array as="points" />
          </mxGeometry>
        </mxCell>
        <mxCell id="X2vZLEiec1v9-HC9pAJ2-262" value="" style="shape=umlLifeline;perimeter=lifelinePerimeter;whiteSpace=wrap;html=1;container=1;collapsible=0;recursiveResize=0;outlineConnect=0;rounded=1;shadow=0;glass=0;sketch=0;strokeColor=#457B9D;fillColor=#A8DADC;fontSize=10;fontColor=#1D3557;align=left;spacing=5;labelBorderColor=none;labelBackgroundColor=none;fontStyle=0;fontFamily=Comic Sans MS;" parent="1" vertex="1">
          <mxGeometry x="1167" y="325.5" width="87" height="190.5" as="geometry" />
        </mxCell>
        <mxCell id="X2vZLEiec1v9-HC9pAJ2-267" value="get beanDefinition&lt;br style=&quot;font-size: 10px;&quot;&gt;from resource" style="html=1;points=[];perimeter=orthogonalPerimeter;rounded=1;shadow=0;glass=0;sketch=0;strokeColor=#457B9D;fillColor=#A8DADC;fontSize=10;fontColor=#1D3557;align=left;spacing=5;arcSize=0;labelBorderColor=none;labelBackgroundColor=none;fontStyle=0;fontFamily=Comic Sans MS;" parent="X2vZLEiec1v9-HC9pAJ2-262" vertex="1">
          <mxGeometry x="45" y="118.5" width="10" height="45.5" as="geometry" />
        </mxCell>
        <mxCell id="WuqNJLrXe6y0jd8liVRH-19" value="AbstractBean&lt;br style=&quot;font-size: 10px&quot;&gt;DefinitionReader" style="html=1;align=center;verticalAlign=top;rounded=1;absoluteArcSize=1;arcSize=10;dashed=0;labelBackgroundColor=none;sketch=0;fontFamily=Comic Sans MS;fontSize=10;fontColor=#1D3557;strokeColor=none;fillColor=none;" vertex="1" parent="X2vZLEiec1v9-HC9pAJ2-262">
          <mxGeometry x="11.25" width="64.5" height="24" as="geometry" />
        </mxCell>
        <mxCell id="X2vZLEiec1v9-HC9pAJ2-268" value="loadBean&lt;br style=&quot;font-size: 10px;&quot;&gt;Definitions" style="html=1;verticalAlign=bottom;endArrow=block;labelBackgroundColor=none;strokeColor=#457B9D;fillColor=#A8DADC;fontSize=10;fontColor=#1D3557;startArrow=none;startFill=0;entryX=-0.028;entryY=0.053;entryDx=0;entryDy=0;entryPerimeter=0;spacing=5;labelBorderColor=none;fontStyle=0;fontFamily=Comic Sans MS;" parent="1" source="X2vZLEiec1v9-HC9pAJ2-269" target="X2vZLEiec1v9-HC9pAJ2-267" edge="1">
          <mxGeometry width="80" relative="1" as="geometry">
            <mxPoint x="1060" y="390" as="sourcePoint" />
            <mxPoint x="1256" y="514" as="targetPoint" />
            <Array as="points" />
          </mxGeometry>
        </mxCell>
        <mxCell id="X2vZLEiec1v9-HC9pAJ2-274" value="new" style="endArrow=open;endSize=12;dashed=1;html=1;labelBackgroundColor=none;strokeColor=#457B9D;fillColor=#A8DADC;fontSize=10;fontColor=#1D3557;spacing=5;labelBorderColor=none;fontStyle=0;fontFamily=Comic Sans MS;" parent="1" target="X2vZLEiec1v9-HC9pAJ2-273" edge="1">
          <mxGeometry x="0.0146" y="13" width="160" relative="1" as="geometry">
            <mxPoint x="760" y="290" as="sourcePoint" />
            <mxPoint x="870" y="290" as="targetPoint" />
            <mxPoint as="offset" />
          </mxGeometry>
        </mxCell>
        <mxCell id="X2vZLEiec1v9-HC9pAJ2-275" value="1" style="endArrow=open;html=1;endSize=12;startArrow=diamondThin;startSize=14;startFill=0;edgeStyle=elbowEdgeStyle;align=left;verticalAlign=bottom;labelBackgroundColor=none;strokeColor=#457B9D;fillColor=#A8DADC;fontSize=10;fontColor=#1D3557;elbow=vertical;dashed=1;dashPattern=1 4;spacing=5;labelBorderColor=none;fontStyle=0;fontFamily=Comic Sans MS;" parent="1" source="X2vZLEiec1v9-HC9pAJ2-273" edge="1">
          <mxGeometry x="-1" y="3" relative="1" as="geometry">
            <mxPoint x="1050" y="240" as="sourcePoint" />
            <mxPoint x="1030" y="385" as="targetPoint" />
            <Array as="points">
              <mxPoint x="1030" y="255" />
            </Array>
          </mxGeometry>
        </mxCell>
        <mxCell id="X2vZLEiec1v9-HC9pAJ2-273" value="BeanFactory" style="html=1;rounded=1;shadow=0;glass=0;sketch=0;strokeColor=#457B9D;strokeWidth=1;fillColor=#A8DADC;fontSize=10;fontColor=#1D3557;align=left;spacing=5;labelBorderColor=none;labelBackgroundColor=none;fontStyle=0;fontFamily=Comic Sans MS;" parent="1" vertex="1">
          <mxGeometry x="950" y="230" width="84" height="30" as="geometry" />
        </mxCell>
        <mxCell id="X2vZLEiec1v9-HC9pAJ2-277" value="" style="html=1;verticalAlign=bottom;endArrow=open;dashed=1;endSize=8;exitX=0.5;exitY=0.967;labelBackgroundColor=none;strokeColor=#457B9D;fillColor=#A8DADC;fontSize=10;fontColor=#1D3557;exitDx=0;exitDy=0;exitPerimeter=0;spacing=5;labelBorderColor=none;fontStyle=0;fontFamily=Comic Sans MS;" parent="1" source="X2vZLEiec1v9-HC9pAJ2-267" target="X2vZLEiec1v9-HC9pAJ2-269" edge="1">
          <mxGeometry relative="1" as="geometry">
            <mxPoint x="935" y="502.30000000000007" as="targetPoint" />
            <mxPoint x="1110" y="502.30000000000007" as="sourcePoint" />
            <Array as="points" />
          </mxGeometry>
        </mxCell>
        <mxCell id="X2vZLEiec1v9-HC9pAJ2-291" value="&lt;font style=&quot;font-size: 10px;&quot;&gt;registerBean&lt;br style=&quot;font-size: 10px;&quot;&gt;Definitions&lt;/font&gt;" style="html=1;verticalAlign=bottom;endArrow=block;dashed=1;dashPattern=1 4;labelBackgroundColor=none;strokeColor=#457B9D;fillColor=#A8DADC;fontSize=10;fontColor=#1D3557;exitX=-0.021;exitY=0.523;exitDx=0;exitDy=0;exitPerimeter=0;spacing=5;labelBorderColor=none;fontStyle=0;fontFamily=Comic Sans MS;" parent="1" source="X2vZLEiec1v9-HC9pAJ2-267" target="X2vZLEiec1v9-HC9pAJ2-290" edge="1">
          <mxGeometry x="0.6961" y="-17" width="80" relative="1" as="geometry">
            <mxPoint x="1190" y="553" as="sourcePoint" />
            <mxPoint x="1270" y="553" as="targetPoint" />
            <mxPoint as="offset" />
          </mxGeometry>
        </mxCell>
        <mxCell id="X2vZLEiec1v9-HC9pAJ2-290" value="？？？" style="html=1;points=[];perimeter=orthogonalPerimeter;rounded=1;shadow=0;glass=0;sketch=0;strokeColor=#457B9D;strokeWidth=1;fillColor=#A8DADC;fontSize=10;align=center;spacing=5;labelBorderColor=none;labelBackgroundColor=none;fontStyle=0;fontFamily=Comic Sans MS;fontColor=#1D3557;" parent="1" vertex="1">
          <mxGeometry x="1275" y="512" width="10" height="38" as="geometry" />
        </mxCell>
        <mxCell id="WuqNJLrXe6y0jd8liVRH-5" value="Extends" style="endArrow=block;endSize=16;endFill=0;html=1;labelBackgroundColor=none;fontFamily=Comic Sans MS;fontSize=10;opacity=60;strokeColor=#457B9D;fontColor=#1D3557;" edge="1" parent="1">
          <mxGeometry width="160" relative="1" as="geometry">
            <mxPoint x="267" y="324" as="sourcePoint" />
            <mxPoint x="427" y="324" as="targetPoint" />
          </mxGeometry>
        </mxCell>
        <mxCell id="WuqNJLrXe6y0jd8liVRH-14" value="Extends" style="endArrow=block;endSize=10;endFill=0;html=1;strokeColor=#457B9D;fillColor=#A8DADC;fontColor=#1D3557;exitX=0.5;exitY=0;exitDx=0;exitDy=0;edgeStyle=elbowEdgeStyle;elbow=vertical;entryX=0.5;entryY=0;entryDx=0;entryDy=0;fontSize=10;sketch=0;labelBackgroundColor=none;dashed=1;dashPattern=1 2;" edge="1" parent="1" source="WuqNJLrXe6y0jd8liVRH-7" target="WuqNJLrXe6y0jd8liVRH-15">
          <mxGeometry width="160" relative="1" as="geometry">
            <mxPoint x="-180" y="354" as="sourcePoint" />
            <mxPoint x="453" y="48" as="targetPoint" />
            <Array as="points">
              <mxPoint x="513" y="42" />
            </Array>
          </mxGeometry>
        </mxCell>
        <mxCell id="X2vZLEiec1v9-HC9pAJ2-59" value="&lt;span style=&quot;font-size: 10px;&quot;&gt;+/- allowBeanDefinitionOverriding&lt;br style=&quot;font-size: 10px;&quot;&gt;+/- allowCirularReferences&lt;br style=&quot;font-size: 10px;&quot;&gt;&lt;/span&gt;" style="shape=note;size=20;whiteSpace=wrap;html=1;rounded=1;shadow=0;glass=0;sketch=0;strokeColor=#457B9D;fillColor=#A8DADC;fontSize=10;fontColor=#1D3557;align=left;spacing=5;labelBorderColor=none;labelBackgroundColor=none;fontStyle=0;fontFamily=Comic Sans MS;" parent="1" vertex="1">
          <mxGeometry x="666" y="150" width="200" height="50" as="geometry" />
        </mxCell>
        <mxCell id="X2vZLEiec1v9-HC9pAJ2-60" value="set" style="endArrow=open;endSize=12;dashed=1;html=1;labelBackgroundColor=none;strokeColor=#457B9D;fillColor=#A8DADC;fontSize=10;fontColor=#1D3557;spacing=5;labelBorderColor=none;fontStyle=0;fontFamily=Comic Sans MS;" parent="1" source="X2vZLEiec1v9-HC9pAJ2-49" target="X2vZLEiec1v9-HC9pAJ2-59" edge="1">
          <mxGeometry x="0.3459" width="160" relative="1" as="geometry">
            <mxPoint x="771" y="430" as="sourcePoint" />
            <mxPoint x="931" y="430" as="targetPoint" />
            <Array as="points">
              <mxPoint x="781" y="330" />
              <mxPoint x="791" y="270" />
            </Array>
            <mxPoint x="-1" as="offset" />
          </mxGeometry>
        </mxCell>
        <mxCell id="WuqNJLrXe6y0jd8liVRH-20" value="Extends" style="endArrow=block;endSize=10;endFill=0;html=1;strokeColor=#457B9D;fillColor=#A8DADC;fontSize=10;fontColor=none;edgeStyle=elbowEdgeStyle;elbow=vertical;sketch=0;labelBackgroundColor=none;dashed=1;dashPattern=1 2;strokeWidth=1;" edge="1" parent="1" source="WuqNJLrXe6y0jd8liVRH-18" target="WuqNJLrXe6y0jd8liVRH-19">
          <mxGeometry width="160" relative="1" as="geometry">
            <mxPoint x="876" y="666" as="sourcePoint" />
            <mxPoint x="1206" y="171" as="targetPoint" />
            <Array as="points">
              <mxPoint x="1161" y="306" />
            </Array>
          </mxGeometry>
        </mxCell>
      </root>
    </mxGraphModel>
  </diagram>
</mxfile>
